<svg width="35" height="35" viewBox="0 0 35 35" fill="none" xmlns="http://www.w3.org/2000/svg">
<path d="M33.0747 1.92527C31.7906 0.641173 30.2455 0 28.4376 0H6.56239C4.75449 0 3.20937 0.641173 1.92527 1.92527C0.641173 3.20937 0 4.75449 0 6.56239V28.4376C0 30.2455 0.641173 31.7906 1.92527 33.0747C3.20937 34.3588 4.75449 35 6.56239 35H11.6672C12.0001 35 12.2506 34.9877 12.4188 34.965C12.6145 34.9257 12.7911 34.8214 12.9198 34.6689C13.0862 34.4937 13.1703 34.2397 13.1703 33.9068L13.1581 32.3565C13.1511 31.3684 13.1476 30.5871 13.1476 30.009L12.622 30.1001C12.2892 30.1614 11.8687 30.1877 11.3589 30.1807C10.8276 30.1709 10.2979 30.1176 9.77526 30.0213C9.21889 29.9185 8.69513 29.6843 8.24766 29.3381C7.77903 28.9835 7.4295 28.4947 7.24561 27.9366L7.01787 27.411C6.82592 26.9965 6.58476 26.6065 6.29961 26.2496C5.97377 25.8239 5.64267 25.5366 5.30807 25.3842L5.15041 25.2703C5.04047 25.1915 4.94047 25.0998 4.8526 24.997C4.76867 24.9016 4.69957 24.7941 4.64763 24.6782C4.60208 24.5713 4.64062 24.4837 4.7615 24.4154C4.88413 24.3453 5.10311 24.312 5.4237 24.312L5.87917 24.3821C6.18224 24.4417 6.55889 24.6239 7.00561 24.9269C7.45769 25.2351 7.83533 25.6403 8.11102 26.1129C8.46138 26.7348 8.88183 27.2096 9.37584 27.5372C9.86986 27.863 10.3674 28.0277 10.8684 28.0277C11.3694 28.0277 11.8021 27.9891 12.1683 27.9138C12.5223 27.8406 12.8664 27.7253 13.1931 27.5704C13.3297 26.5544 13.7011 25.7696 14.309 25.223C13.5214 25.1458 12.7407 25.0087 11.9738 24.8131C11.2254 24.6075 10.5057 24.3091 9.83132 23.9249C9.12576 23.5407 8.50256 23.0217 7.99715 22.3973C7.51189 21.7894 7.11247 20.9923 6.80064 20.006C6.49056 19.018 6.33465 17.8775 6.33465 16.5864C6.33465 14.7487 6.93378 13.1843 8.13379 11.8915C7.5732 10.511 7.62576 8.96066 8.29321 7.24561C8.73467 7.10721 9.38811 7.21057 10.2535 7.55218C11.1189 7.89379 11.7531 8.18635 12.156 8.4281C12.5589 8.67336 12.8813 8.87832 13.1248 9.04475C14.549 8.6484 16.0208 8.44917 17.4991 8.45262C19.004 8.45262 20.4615 8.65058 21.8752 9.04475L22.7406 8.49817C23.4063 8.0985 24.1084 7.76297 24.8376 7.49612C25.6434 7.1913 26.2566 7.10896 26.684 7.24561C27.3672 8.96241 27.4268 10.511 26.8645 11.8932C28.0645 13.1843 28.6653 14.7487 28.6653 16.5882C28.6653 17.8793 28.5094 19.0232 28.1976 20.0165C27.8875 21.0116 27.4846 21.8086 26.9906 22.4095C26.4763 23.026 25.8505 23.54 25.1459 23.9249C24.4101 24.3348 23.6954 24.6309 23.0034 24.8131C22.2366 25.0094 21.4559 25.147 20.6682 25.2247C21.4565 25.908 21.8524 26.9853 21.8524 28.4586V33.9068C21.8524 34.1644 21.8892 34.3728 21.9663 34.5323C22.0017 34.6091 22.0523 34.678 22.1149 34.7348C22.1775 34.7917 22.2509 34.8354 22.3307 34.8634C22.4989 34.9229 22.646 34.9615 22.7757 34.9755C22.9053 34.993 23.091 34.9982 23.3328 34.9982H28.4376C30.2455 34.9982 31.7906 34.3571 33.0747 33.073C34.3571 31.7906 35 30.2438 35 28.4359V6.56239C35 4.75449 34.3571 3.20937 33.073 1.92527H33.0747Z" fill="#64FFDA"/>
</svg>
