<svg width="17" height="17" viewBox="0 0 17 17" fill="none" xmlns="http://www.w3.org/2000/svg">
<path d="M5.77677 16C5.77677 16 5.17161 13.6 6.38194 12.4C6.38194 12.4 3.96129 12.4 2.14581 10.6C0.330323 8.8 0.935484 5.2 2.14581 4C1.54065 2.2 2.75097 1 2.75097 1C2.75097 1 4.56645 1 5.77677 2.2C6.9871 1.6 10.0129 1.6 11.2232 2.2C12.4335 1 14.249 1 14.249 1C14.249 1 15.4594 2.2 14.8542 4C16.0645 5.2 16.6697 8.8 14.8542 10.6C13.0387 12.4 10.6181 12.4 10.6181 12.4C11.8284 13.6 11.2232 16 11.2232 16" stroke="#CCD6F6" stroke-width="1.5" stroke-linecap="round" stroke-linejoin="round"/>
</svg>
