<svg width="16" height="16" viewBox="0 0 16 16" fill="none" xmlns="http://www.w3.org/2000/svg">
<path d="M15.1199 0.880124C14.5329 0.293108 13.8265 0 13 0H2.99995C2.17348 0 1.46714 0.293108 0.880124 0.880124C0.293108 1.46714 0 2.17348 0 2.99995V13C0 13.8265 0.293108 14.5329 0.880124 15.1199C1.46714 15.7069 2.17348 16 2.99995 16H5.3336C5.48576 16 5.60028 15.9944 5.67716 15.984C5.76661 15.966 5.84734 15.9183 5.9062 15.8486C5.98228 15.7686 6.02072 15.6524 6.02072 15.5003L6.01512 14.7915C6.01191 14.3399 6.01031 13.9827 6.01031 13.7184L5.77006 13.76C5.6179 13.7881 5.4257 13.8001 5.19265 13.7969C4.94975 13.7924 4.70762 13.768 4.46869 13.724C4.21435 13.677 3.97492 13.57 3.77036 13.4117C3.55613 13.2496 3.39634 13.0261 3.31228 12.771L3.20817 12.5308C3.12042 12.3412 3.01018 12.163 2.87982 11.9998C2.73087 11.8052 2.57951 11.6739 2.42655 11.6042L2.35447 11.5521C2.30421 11.5161 2.2585 11.4742 2.21833 11.4272C2.17996 11.3836 2.14838 11.3345 2.12463 11.2814C2.10381 11.2326 2.12143 11.1926 2.17669 11.1613C2.23274 11.1293 2.33285 11.1141 2.4794 11.1141L2.68762 11.1461C2.82617 11.1733 2.99835 11.2566 3.20256 11.3952C3.40923 11.5361 3.58186 11.7213 3.70789 11.9373C3.86806 12.2216 4.06026 12.4387 4.2861 12.5884C4.51194 12.7374 4.73938 12.8127 4.96842 12.8127C5.19746 12.8127 5.39527 12.795 5.56264 12.7606C5.7245 12.7271 5.88178 12.6744 6.03113 12.6036C6.0936 12.1391 6.26338 11.7804 6.54127 11.5305C6.18119 11.4952 5.82432 11.4326 5.47375 11.3431C5.13162 11.2491 4.80259 11.1127 4.49432 10.9371C4.17178 10.7615 3.88688 10.5242 3.65584 10.2388C3.43401 9.96086 3.25141 9.59648 3.10886 9.1456C2.96712 8.69393 2.89584 8.17258 2.89584 7.58236C2.89584 6.74228 3.16973 6.02713 3.7183 5.43611C3.46204 4.80505 3.48606 4.0963 3.79118 3.31228C3.99299 3.24901 4.29171 3.29626 4.68732 3.45242C5.08294 3.60859 5.37284 3.74233 5.55703 3.85285C5.74123 3.96496 5.88858 4.05866 5.9999 4.13474C6.65096 3.95355 7.3238 3.86248 7.9996 3.86406C8.68752 3.86406 9.35382 3.95455 10.0001 4.13474L10.3957 3.88488C10.7 3.70217 11.021 3.54879 11.3543 3.4268C11.7227 3.28745 12.003 3.24981 12.1984 3.31228C12.5107 4.0971 12.538 4.80504 12.2809 5.43691C12.8295 6.02713 13.1042 6.74228 13.1042 7.58316C13.1042 8.17338 13.0329 8.69633 12.8903 9.15041C12.7486 9.60528 12.5644 9.96967 12.3386 10.2444C12.1034 10.5262 11.8174 10.7612 11.4953 10.9371C11.1589 11.1245 10.8322 11.2598 10.5158 11.3431C10.1653 11.4328 9.80842 11.4958 9.44832 11.5313C9.8087 11.8436 9.98969 12.3362 9.98969 13.0097V15.5003C9.98969 15.618 10.0065 15.7133 10.0417 15.7862C10.0579 15.8213 10.081 15.8528 10.1097 15.8788C10.1383 15.9048 10.1718 15.9248 10.2083 15.9375C10.2852 15.9648 10.3525 15.9824 10.4117 15.9888C10.471 15.9968 10.5559 15.9992 10.6664 15.9992H13C13.8265 15.9992 14.5329 15.7061 15.1199 15.1191C15.7061 14.5329 16 13.8257 16 12.9992V2.99995C16 2.17348 15.7061 1.46714 15.1191 0.880124H15.1199Z" fill="#35455D"/>
</svg>
