<svg width="17" height="17" viewBox="0 0 17 17" fill="none" xmlns="http://www.w3.org/2000/svg">
<path d="M11.1092 0H5.89085C1.12887 0 0 1.12887 0 5.89085V11.1092C0 15.8711 1.12887 17 5.89085 17H11.1092C15.8711 17 17 15.8711 17 11.1092V5.89085C17 1.12887 15.86 0 11.1092 0ZM13.7239 12.127H12.4898C12.0223 12.127 11.8784 11.7562 11.0374 10.9041C10.307 10.196 9.98347 10.1019 9.80338 10.1019C9.54892 10.1019 9.47667 10.1737 9.47667 10.5227V11.6377C9.47667 11.9368 9.38264 12.1164 8.59111 12.1164C7.28215 12.1164 5.82976 11.3248 4.81138 9.85013C3.27559 7.68907 2.85538 6.0704 2.85538 5.73573C2.85538 5.55564 2.9271 5.38724 3.27293 5.38724H4.50964C4.82254 5.38724 4.94153 5.5312 5.06319 5.86588C5.67464 7.63117 6.69301 9.17759 7.11322 9.17759C7.26834 9.17759 7.34005 9.10587 7.34005 8.7101V6.88691C7.29277 6.04597 6.85026 5.97372 6.85026 5.67517C6.85026 5.5312 6.96925 5.38724 7.15996 5.38724H9.10481C9.36777 5.38724 9.46445 5.5312 9.46445 5.84091V8.30052C9.46445 8.56614 9.58345 8.66017 9.65517 8.66017C9.81029 8.66017 9.9431 8.56614 10.2305 8.27821C11.1187 7.28215 11.7551 5.74635 11.7551 5.74635C11.838 5.56626 11.982 5.39786 12.2949 5.39786H13.5316C13.9024 5.39786 13.9853 5.58858 13.9024 5.85419C13.7473 6.57348 12.2338 8.70957 12.2338 8.70957C12.1036 8.92525 12.0537 9.01928 12.2338 9.25993C12.3666 9.44002 12.7985 9.81348 13.0859 10.1482C13.6145 10.7484 14.0208 11.2521 14.1292 11.6005C14.2509 11.9464 14.0713 12.1265 13.7223 12.1265L13.7239 12.127Z" fill="#35455E"/>
</svg>
