<svg width="35" height="35" viewBox="0 0 35 35" fill="none" xmlns="http://www.w3.org/2000/svg">
<path d="M22.8718 0H12.1282C2.32415 0 0 2.32415 0 12.1282V22.8718C0 32.6759 2.32415 35 12.1282 35H22.8718C32.6758 35 35 32.6759 35 22.8718V12.1282C35 2.32415 32.6529 0 22.8718 0ZM28.2551 24.9673H25.7144C24.7519 24.9673 24.4555 24.2039 22.7241 22.4496C21.2203 20.9917 20.5542 20.7981 20.1834 20.7981C19.6595 20.7981 19.5108 20.9458 19.5108 21.6643V23.96C19.5108 24.5758 19.3172 24.9455 17.6876 24.9455C14.9927 24.9455 12.0024 23.3158 9.90578 20.2797C6.74385 15.8304 5.87872 12.4979 5.87872 11.8088C5.87872 11.4381 6.02637 11.0914 6.73838 11.0914H9.28455C9.92875 11.0914 10.1737 11.3878 10.4242 12.0768C11.6831 15.7112 13.7797 18.895 14.6449 18.895C14.9642 18.895 15.1119 18.7474 15.1119 17.9326V14.1789C15.0145 12.4476 14.1035 12.2988 14.1035 11.6842C14.1035 11.3878 14.3485 11.0914 14.7411 11.0914H18.7452C19.2866 11.0914 19.4856 11.3878 19.4856 12.0254V17.0893C19.4856 17.6362 19.7306 17.8298 19.8783 17.8298C20.1976 17.8298 20.4711 17.6362 21.0628 17.0434C22.8915 14.9927 24.2017 11.8307 24.2017 11.8307C24.3724 11.46 24.6688 11.1132 25.313 11.1132H27.8591C28.6225 11.1132 28.7932 11.5059 28.6225 12.0527C28.3032 13.5336 25.1872 17.9315 25.1872 17.9315C24.9192 18.3755 24.8164 18.5691 25.1872 19.0646C25.4606 19.4353 26.3498 20.2042 26.9415 20.8933C28.0297 22.1292 28.8664 23.166 29.0896 23.8835C29.34 24.5955 28.9703 24.9662 28.2518 24.9662L28.2551 24.9673Z" fill="#64FFDA"/>
</svg>
